<?xml version="1.0" encoding="UTF-8"?>
<svg width="90px" height="10px" viewBox="0 0 90 10" version="1.1" xmlns="http://www.w3.org/2000/svg" xmlns:xlink="http://www.w3.org/1999/xlink">
    <!-- Generator: Sketch 51.3 (57544) - http://www.bohemiancoding.com/sketch -->
    <title>noun_Arrow_941553</title>
    <desc>Created with Sketch.</desc>
    <defs></defs>
    <g id="Page-1" stroke="none" stroke-width="1" fill="none" fill-rule="evenodd">
        <g id="main-descktop" transform="translate(-1242.000000, -3292.000000)" fill="#BB9B6A" fill-rule="nonzero">
            <g id="noun_Arrow_941553" transform="translate(1242.000000, 3292.000000)">
                <path d="M7.00397228,9.84126984 C7.16315347,9.94708995 7.40192525,10 7.56110644,10 C7.72028763,10 7.95905941,9.94708995 8.1182406,9.84126984 C8.43660297,9.62962963 8.43660297,9.31216931 8.1182406,9.1005291 L2.7060802,5.55555556 L89.2040941,5.55555556 C89.6816376,5.55555556 90,5.34391534 90,5.02645503 C90,4.70899471 89.6816376,4.4973545 89.2040941,4.4973545 L2.7060802,4.4973545 L8.1182406,0.899470899 C8.43660297,0.687830688 8.43660297,0.37037037 8.1182406,0.158730159 C7.79987822,-0.0529100529 7.32233466,-0.0529100529 7.00397228,0.158730159 L0.238771782,4.65608466 C-0.0795905941,4.86772487 -0.0795905941,5.18518519 0.238771782,5.3968254 L7.00397228,9.84126984 Z" id="Shape"></path>
            </g>
        </g>
    </g>
</svg>