<?xml version="1.0" encoding="UTF-8"?>
<svg width="124px" height="122px" viewBox="0 0 124 122" version="1.1" xmlns="http://www.w3.org/2000/svg" xmlns:xlink="http://www.w3.org/1999/xlink">
    <!-- Generator: Sketch 51.3 (57544) - http://www.bohemiancoding.com/sketch -->
    <title>H</title>
    <desc>Created with Sketch.</desc>
    <defs></defs>
    <g id="Page-1" stroke="none" stroke-width="1" fill="none" fill-rule="evenodd" opacity="0.4">
        <g id="main-descktop" transform="translate(-473.000000, -2672.000000)" stroke="#BB9B6A">
            <polygon id="H" points="474 2793 474 2788.25727 489.429412 2785.84116 489.429412 2680.06935 474 2677.74273 474 2673 522.172059 2673 522.172059 2677.74273 506.742647 2680.06935 506.742647 2727.22819 563.347059 2727.22819 563.347059 2680.06935 547.917647 2677.74273 547.917647 2673 596 2673 596 2677.74273 580.570588 2680.06935 580.570588 2785.84116 596 2788.25727 596 2793 547.917647 2793 547.917647 2788.25727 563.347059 2785.84116 563.347059 2735.28188 506.742647 2735.28188 506.742647 2785.84116 522.172059 2788.25727 522.172059 2793"></polygon>
        </g>
    </g>
</svg>