<?xml version="1.0" encoding="UTF-8"?>
<svg width="122px" height="123px" viewBox="0 0 122 123" version="1.1" xmlns="http://www.w3.org/2000/svg" xmlns:xlink="http://www.w3.org/1999/xlink">
    <!-- Generator: Sketch 51.3 (57544) - http://www.bohemiancoding.com/sketch -->
    <title>D</title>
    <desc>Created with Sketch.</desc>
    <defs></defs>
    <g id="Page-1" stroke="none" stroke-width="1" fill="none" fill-rule="evenodd" opacity="0.4">
        <g id="main-descktop" transform="translate(-912.000000, -2671.000000)" stroke="#BB9B6A">
            <path d="M1014.25561,2731.28251 C1014.25561,2714.48123 1009.7265,2701.74593 1000.66816,2693.07623 C991.60982,2684.40653 978.680204,2680.07175 961.878924,2680.07175 L945.735426,2680.07175 L945.735426,2783.83857 C952.91035,2784.31689 961.430444,2784.55605 971.295964,2784.55605 C986.004558,2784.55605 996.84152,2780.22127 1003.80717,2771.55157 C1010.77283,2762.88187 1014.25561,2749.45898 1014.25561,2731.28251 Z M967.618834,2672 C989.801307,2672 1006.24359,2676.94763 1016.94619,2686.84305 C1027.64878,2696.73847 1033,2711.61126 1033,2731.46188 C1033,2751.55167 1027.8431,2766.76826 1017.52915,2777.11211 C1007.2152,2787.45596 991.804288,2792.6278 971.295964,2792.6278 L928.426009,2792.26906 L913,2792.26906 L913,2787.5157 L928.426009,2785.09417 L928.426009,2679.0852 L913,2676.75336 L913,2672 L967.618834,2672 Z" id="D"></path>
        </g>
    </g>
</svg>