<?xml version="1.0" encoding="UTF-8"?>
<svg width="108px" height="122px" viewBox="0 0 108 122" version="1.1" xmlns="http://www.w3.org/2000/svg" xmlns:xlink="http://www.w3.org/1999/xlink">
    <!-- Generator: Sketch 51.3 (57544) - http://www.bohemiancoding.com/sketch -->
    <title>C</title>
    <desc>Created with Sketch.</desc>
    <defs></defs>
    <g id="Page-1" stroke="none" stroke-width="1" fill="none" fill-rule="evenodd" opacity="0.4">
        <g id="main-descktop" transform="translate(-236.000000, -2848.000000)" stroke="#BB9B6A">
            <path d="M299.566296,2969.12729 C279.859325,2969.12729 264.505045,2963.96198 253.502994,2953.63122 C242.500943,2943.30045 237,2928.82305 237,2910.19857 C237,2890.06085 242.289368,2874.82684 252.868263,2864.49607 C263.447159,2854.16531 279.133914,2849 299.928999,2849 C312.563223,2849 326.13423,2850.48412 340.642429,2853.45239 L341.186484,2879.03182 L335.201882,2879.03182 L332.481608,2863.84131 C328.25005,2861.33864 323.338494,2859.40347 317.746792,2858.03574 C312.15509,2856.668 306.457685,2855.98414 300.654405,2855.98414 C285.118542,2855.98414 273.784182,2860.37829 266.650984,2869.16672 C259.517786,2877.95514 255.95124,2891.57409 255.95124,2910.02396 C255.95124,2927.0188 259.684023,2939.99754 267.149701,2948.96057 C274.615378,2957.9236 285.481252,2962.40505 299.747648,2962.40505 C306.639042,2962.40505 313.137409,2961.60479 319.242943,2960.00425 C325.348476,2958.40371 330.18447,2956.26484 333.751069,2953.58757 L337.106074,2936.1272 L343,2936.1272 L342.455945,2963.62727 C329.156763,2967.29397 314.860356,2969.12729 299.566296,2969.12729 Z" id="C"></path>
        </g>
    </g>
</svg>