<?xml version="1.0" encoding="UTF-8"?>
<svg width="23px" height="29px" viewBox="0 0 23 29" version="1.1" xmlns="http://www.w3.org/2000/svg" xmlns:xlink="http://www.w3.org/1999/xlink">
    <!-- Generator: Sketch 51.3 (57544) - http://www.bohemiancoding.com/sketch -->
    <title>placeholder</title>
    <desc>Created with Sketch.</desc>
    <defs></defs>
    <g id="Page-1" stroke="none" stroke-width="1" fill="none" fill-rule="evenodd">
        <g id="main-descktop" transform="translate(-33.000000, -4414.000000)" fill="#BB9B6A" fill-rule="nonzero">
            <g id="placeholder" transform="translate(33.000000, 4414.000000)">
                <path d="M11.4939948,0 C5.16449086,0 0.0120104439,5.2163522 0.0120104439,11.6243187 C0.0120104439,12.3538784 0.0780678851,13.0895178 0.21618799,13.8069182 C0.222193211,13.8494759 0.246214099,13.9771488 0.294255875,14.1960168 C0.468407311,14.9802935 0.726631854,15.7524109 1.06292428,16.4880503 C2.3,19.4366876 5.02036554,23.9660377 10.9895561,28.8176101 C11.1396867,28.9392034 11.3198433,29 11.5,29 C11.6801567,29 11.8603133,28.9392034 12.0104439,28.8176101 C17.9736292,23.9660377 20.7,19.4366876 21.9370757,16.4880503 C22.2733681,15.7524109 22.5315927,14.9863732 22.7057441,14.1960168 C22.7537859,13.9771488 22.7778068,13.8494759 22.783812,13.8069182 C22.9159269,13.0895178 22.9879896,12.3538784 22.9879896,11.6243187 C22.9759791,5.2163522 17.8234987,0 11.4939948,0 Z M21.1744125,13.521174 C21.1744125,13.5333333 21.1684073,13.5454927 21.1684073,13.557652 C21.1624021,13.5880503 21.1443864,13.6792453 21.1143603,13.8190776 C21.1143603,13.8251572 21.1143603,13.8251572 21.1143603,13.8312369 C20.9642298,14.5121593 20.7420366,15.1748428 20.4477807,15.8132075 C20.4417755,15.8192872 20.4417755,15.8314465 20.4357702,15.8375262 C19.3127937,18.5308176 16.8506527,22.6406709 11.4939948,27.1213836 C6.13733681,22.6406709 3.67519582,18.5308176 2.55221932,15.8375262 C2.5462141,15.8314465 2.5462141,15.8192872 2.54020888,15.8132075 C2.25195822,15.1809224 2.02976501,14.5121593 1.87362924,13.8312369 C1.87362924,13.8251572 1.87362924,13.8251572 1.87362924,13.8190776 C1.83759791,13.6792453 1.82558747,13.5880503 1.81958225,13.557652 C1.81958225,13.5454927 1.81357702,13.5333333 1.81357702,13.5150943 C1.69347258,12.8888889 1.63342037,12.2566038 1.63342037,11.618239 C1.63342037,6.11614256 6.05926893,1.63542977 11.4939948,1.63542977 C16.9287206,1.63542977 21.3545692,6.11614256 21.3545692,11.618239 C21.3545692,12.2626834 21.294517,12.9010482 21.1744125,13.521174 Z" id="Shape"></path>
                <path d="M11.4939948,4.37127883 C7.47650131,4.37127883 4.20365535,7.68469602 4.20365535,11.7519916 C4.20365535,15.8192872 7.47650131,19.1327044 11.4939948,19.1327044 C15.5114883,19.1327044 18.7843342,15.8192872 18.7843342,11.7519916 C18.7843342,7.68469602 15.5114883,4.37127883 11.4939948,4.37127883 Z M11.4939948,17.491195 C8.36527415,17.491195 5.82506527,14.9134172 5.82506527,11.7519916 C5.82506527,8.59056604 8.37127937,6.01278826 11.4939948,6.01278826 C14.6167102,6.01278826 17.1629243,8.59056604 17.1629243,11.7519916 C17.1629243,14.9134172 14.6227154,17.491195 11.4939948,17.491195 Z" id="Shape"></path>
            </g>
        </g>
    </g>
</svg>