<?xml version="1.0" encoding="UTF-8"?>
<svg width="28px" height="29px" viewBox="0 0 28 29" version="1.1" xmlns="http://www.w3.org/2000/svg" xmlns:xlink="http://www.w3.org/1999/xlink">
    <!-- Generator: Sketch 51.3 (57544) - http://www.bohemiancoding.com/sketch -->
    <title>printer</title>
    <desc>Created with Sketch.</desc>
    <defs></defs>
    <g id="Page-1" stroke="none" stroke-width="1" fill="none" fill-rule="evenodd">
        <g id="main-descktop" transform="translate(-693.000000, -4414.000000)" fill="#BB9B6A" fill-rule="nonzero">
            <g id="printer" transform="translate(693.000000, 4414.000000)">
                <path d="M23.6326087,5.93809524 L22.8778261,5.93809524 L22.8778261,4.28095238 C22.8778261,1.92132505 20.93,0 18.5378261,0 L9.42565217,0 C7.03347826,0 5.08565217,1.92132505 5.08565217,4.28095238 L5.08565217,5.93809524 L4.39782609,5.93809524 C2.00565217,5.93809524 0.057826087,7.85942029 0.057826087,10.2190476 L0.057826087,17.1238095 C0.057826087,19.4834369 2.00565217,21.4047619 4.39782609,21.4047619 L5.07956522,21.4047619 L5.07956522,26.8325052 C5.07956522,28.0093168 6.05347826,28.9699793 7.24652174,28.9699793 L20.7047826,28.9699793 C21.8978261,28.9699793 22.8717391,28.0093168 22.8717391,26.8325052 L22.8717391,21.4047619 L23.6326087,21.4047619 C26.0247826,21.4047619 27.9726087,19.4834369 27.9726087,17.1238095 L27.9726087,10.2190476 C27.9726087,7.85942029 26.0247826,5.93809524 23.6326087,5.93809524 Z M6.72304348,4.28095238 C6.72304348,2.81594203 7.93434783,1.62111801 9.41956522,1.62111801 L18.5256522,1.62111801 C20.0108696,1.62111801 21.2221739,2.81594203 21.2221739,4.28095238 L21.2221739,5.93809524 L6.72304348,5.93809524 L6.72304348,4.28095238 Z M21.2282609,26.8445135 C21.2282609,27.1267081 20.9908696,27.3608696 20.7047826,27.3608696 L7.24652174,27.3608696 C6.96043478,27.3608696 6.72304348,27.1267081 6.72304348,26.8445135 L6.72304348,17.8923395 L21.2282609,17.8923395 L21.2282609,26.8445135 Z M26.3291304,17.1298137 C26.3291304,18.594824 25.1178261,19.789648 23.6326087,19.789648 L22.8778261,19.789648 L22.8778261,17.8923395 L23.9613043,17.8923395 C24.4178261,17.8923395 24.7830435,17.5320911 24.7830435,17.0817805 C24.7830435,16.63147 24.4178261,16.2712215 23.9613043,16.2712215 L3.87434783,16.2712215 C3.41782609,16.2712215 3.0526087,16.63147 3.0526087,17.0817805 C3.0526087,17.5320911 3.41782609,17.8923395 3.87434783,17.8923395 L5.08565217,17.8923395 L5.08565217,19.789648 L4.39782609,19.789648 C2.9126087,19.789648 1.70130435,18.594824 1.70130435,17.1298137 L1.70130435,10.2250518 C1.70130435,8.76004141 2.9126087,7.56521739 4.39782609,7.56521739 L23.6326087,7.56521739 C25.1178261,7.56521739 26.3291304,8.76004141 26.3291304,10.2250518 L26.3291304,17.1298137 Z" id="Shape"></path>
                <path d="M8.71347826,21.879089 L19.1769565,21.879089 C19.6334783,21.879089 19.9986957,21.5188406 19.9986957,21.06853 C19.9986957,20.6182195 19.6334783,20.257971 19.1769565,20.257971 L8.71347826,20.257971 C8.25695652,20.257971 7.89173913,20.6182195 7.89173913,21.06853 C7.89173913,21.5188406 8.26304348,21.879089 8.71347826,21.879089 Z" id="Shape"></path>
                <path d="M19.243913,23.5722567 L8.77434783,23.5722567 C8.31782609,23.5722567 7.9526087,23.9325052 7.9526087,24.3828157 C7.9526087,24.8331263 8.31782609,25.1933747 8.77434783,25.1933747 L19.2378261,25.1933747 C19.6943478,25.1933747 20.0595652,24.8331263 20.0595652,24.3828157 C20.0595652,23.9325052 19.6943478,23.5722567 19.243913,23.5722567 Z" id="Shape"></path>
                <path d="M23.6143478,9.12028986 L21.9465217,9.12028986 C21.49,9.12028986 21.1247826,9.4805383 21.1247826,9.93084886 C21.1247826,10.3811594 21.49,10.7414079 21.9465217,10.7414079 L23.6143478,10.7414079 C24.0708696,10.7414079 24.436087,10.3811594 24.436087,9.93084886 C24.436087,9.4805383 24.0708696,9.12028986 23.6143478,9.12028986 Z" id="Shape"></path>
            </g>
        </g>
    </g>
</svg>