<?xml version="1.0" encoding="UTF-8"?>
<svg width="29px" height="22px" viewBox="0 0 29 22" version="1.1" xmlns="http://www.w3.org/2000/svg" xmlns:xlink="http://www.w3.org/1999/xlink">
    <!-- Generator: Sketch 51.3 (57544) - http://www.bohemiancoding.com/sketch -->
    <title>envelope</title>
    <desc>Created with Sketch.</desc>
    <defs></defs>
    <g id="Page-1" stroke="none" stroke-width="1" fill="none" fill-rule="evenodd">
        <g id="main-descktop" transform="translate(-1023.000000, -4417.000000)" fill="#BB9B6A" fill-rule="nonzero">
            <g id="envelope" transform="translate(1023.000000, 4417.000000)">
                <path d="M25.4229339,0.0447154472 L3.5411157,0.0447154472 C1.58780992,0.0447154472 0,1.62466125 0,3.56829268 L0,18.4495935 C0,20.3932249 1.58780992,21.9731707 3.5411157,21.9731707 L25.4169421,21.9731707 C27.3702479,21.9731707 28.9580579,20.3932249 28.9580579,18.4495935 L28.9580579,3.57425474 C28.9640496,1.63062331 27.3762397,0.0447154472 25.4229339,0.0447154472 Z M27.346281,18.4495935 C27.346281,19.504878 26.4834711,20.3634146 25.4229339,20.3634146 L3.5411157,20.3634146 C2.48057851,20.3634146 1.6177686,19.504878 1.6177686,18.4495935 L1.6177686,3.57425474 C1.6177686,2.51897019 2.48057851,1.6604336 3.5411157,1.6604336 L25.4169421,1.6604336 C26.4774793,1.6604336 27.3402893,2.51897019 27.3402893,3.57425474 L27.3402893,18.4495935 L27.346281,18.4495935 Z" id="Shape"></path>
                <path d="M18.2628099,10.8241192 L25.3450413,4.50433604 C25.6745868,4.20623306 25.7045455,3.69945799 25.4049587,3.36558266 C25.1053719,3.03766938 24.5960744,3.00785908 24.2605372,3.30596206 L14.4940083,12.0284553 L12.5886364,10.3352304 C12.5826446,10.3292683 12.5766529,10.3233062 12.5766529,10.3173442 C12.5347107,10.2756098 12.4927686,10.2398374 12.4448347,10.204065 L4.69152893,3.3 C4.35599174,3.00189702 3.84669421,3.03170732 3.54710744,3.36558266 C3.24752066,3.69945799 3.27747934,4.20623306 3.61301653,4.50433604 L10.7791322,10.8777778 L3.64297521,17.5254743 C3.31942149,17.8295393 3.30144628,18.3363144 3.60702479,18.6642276 C3.76880165,18.8311653 3.98450413,18.9205962 4.20020661,18.9205962 C4.39793388,18.9205962 4.59566116,18.8490515 4.75144628,18.7059621 L11.9954545,11.9628726 L13.9607438,13.7097561 C14.1165289,13.8468835 14.3082645,13.9124661 14.5,13.9124661 C14.6917355,13.9124661 14.8894628,13.8409214 15.0392562,13.703794 L17.0584711,11.903252 L24.2605372,18.7119241 C24.4163223,18.8609756 24.6200413,18.9325203 24.8177686,18.9325203 C25.0334711,18.9325203 25.2431818,18.8490515 25.4049587,18.6821138 C25.7105372,18.3601626 25.6985537,17.8474255 25.375,17.5433604 L18.2628099,10.8241192 Z" id="Shape"></path>
            </g>
        </g>
    </g>
</svg>