<?xml version="1.0" encoding="UTF-8"?>
<svg width="75px" height="63px" viewBox="0 0 76 63" version="1.1" xmlns="http://www.w3.org/2000/svg" xmlns:xlink="http://www.w3.org/1999/xlink">
    
<!-- Generator: Sketch 51.3 (57544) - http://www.bohemiancoding.com/sketch -->
    
<title>Group</title>
    
<desc>Created with Sketch.</desc>
    
<defs></defs>
    
<g id="Page-1" stroke="none" stroke-width="0.1" fill="none" fill-rule="evenodd">
        
<g id="main-descktop" transform="translate(-33.000000, -30.000000)" fill="white" stroke="lightgray" fill-rule="nonzero" opacity="0.5">
            
<g id="Group" transform="translate(33.000000, 30.000000)">
                
<path d="M27.1812081,52.9941176 L17.823254,52.9941176 C15.7765517,52.9941176 14.1173716,54.6532977 14.1173716,56.7 C14.1173716,58.7467023 15.7765517,60.4058824 17.823254,60.4058824 L27.1812081,60.4058824 L27.1812081,63 L17.8771812,63 C14.3977873,63 11.5771812,60.1793939 11.5771812,56.7 C11.5771812,53.2206061 14.3977873,50.4 17.8771812,50.4 L27.1812081,50.4 L27.1812081,52.9941176 Z" id="Combined-Shape"></path>
                <path d="M42.9929133,9.80722706 L33.0206334,22.3625908 L33.0206334,43.9202428 C32.2447136,43.9956293 31.4586887,44.0785928 30.6627379,44.1693344 L30.6627379,42.6188328 C30.6629181,42.6188115 30.6631885,35.5584888 30.663549,21.4378645 L44.1425238,5.04 L53.3278216,17.9883552 L53.3278216,41.9217873 C68.7797635,42.6504075 75,46.5126122 75,51.3201478 C75,56.1276835 71.2649721,60.3163052 60.9430172,63 L60.9430172,56.095674 C60.9430172,54.4901355 59.6441832,53.1885893 58.0419903,53.1885893 L56.772791,53.1885893 C55.8715575,53.1885893 55.1409634,53.920709 55.1409634,54.8238245 L55.1409634,63 L53.5997929,63 L52.6025649,63 L52.6025649,56.095674 C52.6025649,54.4901355 51.7732105,53.1885893 50.1710176,53.1885893 L48.9018183,53.1885893 C48.0005848,53.1885893 47.2699907,53.920709 47.2699907,54.8238245 L47.2699907,63 L44.715398,63 L44.715398,55.1805613 C44.4803227,54.4477328 44.1079263,53.9654349 43.5982088,53.7336677 C43.0654213,53.4914107 42.5427265,53.3702821 42.0301244,53.3702821 L37.9161163,53.3702821 L32.7486621,53.3702821 C32.0977712,53.3702821 31.5701199,53.8990352 31.5701199,54.5512853 C31.5701199,55.2035353 32.0977712,55.7322884 32.7486621,55.7322884 L37.9161163,55.7322884 L39.7292581,55.7322884 C41.7319992,55.7322884 43.3555417,57.3592211 43.3555417,59.3661442 C43.3555417,61.3730673 41.7319992,63 39.7292581,63 L36.4656028,63 L31.7514341,63 C31.6912898,62.9988034 31.6308443,63 31.5701199,63 C29.0666935,63 27.0372654,60.9663342 27.0372654,58.4576803 L27.0372654,58.2759875 L18.5154989,58.2759875 L18.5154989,55.7322884 L29.2130356,55.7322884 L29.2130356,56.095674 L29.2130356,57.7295734 C29.257499,59.2886037 30.3499161,60.4810063 31.7514341,60.6956848 L36.4656028,60.6379937 L39.7292581,60.6379937 C40.4302175,60.6379937 40.9984573,60.0685673 40.9984573,59.3661442 C40.9984573,58.6637211 40.4302175,58.0942947 39.7292581,58.0942947 L36.4656028,58.0942947 L32.7486621,58.0942947 C30.7959895,58.0942947 29.2130356,56.5080353 29.2130356,54.5512853 C29.2130356,52.5945352 30.7959895,51.0082759 32.7486621,51.0082759 L37.9161163,51.0082759 L41.9965706,51.0082759 C42.9025513,51.0082759 43.6983093,51.1584741 44.3838445,51.4588704 C44.9873525,51.7233231 45.3597023,52.0811701 45.5008939,52.5324115 C46.2278621,51.5523808 47.3920902,50.9174295 48.70431,50.9174295 L50.3361376,50.9174295 C51.8019477,50.9174295 53.0420585,51.8857805 53.4541685,53.2189232 C53.8316978,51.9407934 55.0122566,51.0082759 56.4101627,51.0082759 L58.4046187,51.0082759 C61.2084563,51.0082759 63.4814157,53.2859816 63.4814157,56.095674 L63.4814157,60.9048848 C68.6542998,58.3102159 71.0984124,55.1296996 70.703882,51.8656387 C70.2110858,47.7885985 63.100643,44.4188155 50.9707373,43.5486445 L50.9707373,18.7445168 L45.5313118,11.0048314 L45.5313118,42.6504075 L42.9929133,42.6504075 L42.9929133,9.80722706 Z M27.8229211,44.394749 C16.6184226,45.8583329 6.72881005,48.4427524 0,50.8163718 C0.0438430691,50.7881315 0.0855836746,50.7596171 0.132491299,50.7317789 C5.29960867,47.6652567 13.7110432,44.7953546 25.3533854,43.2419549" id="Combined-Shape"></path>
                <polyline id="Combined-Shape" points="25.1677852 42.8760023 25.1677852 18.7046263 40.3607556 0 41.7785235 2.02256464 27.490174 19.6134788 27.490174 42.6051217 27.490174 44.352"></polyline>
                <path d="M50.8576054,41.7763828 C37.6461567,42.3138516 31.0404323,42.5825859 31.0404323,42.5825859 C31.0404323,42.5825859 31.0404323,43.1118516 31.0404323,44.1703828 C36.9744354,43.7034609 41.001281,43.47 43.1209692,43.47 C48.3036323,43.47 51.1256685,43.47 51.5870779,43.47 C52.4571361,43.47 52.2139786,42.9054609 50.8576054,41.7763828 Z" id="Path-4"></path>
            </g>
        </g>
    </g>
</svg>