<?xml version="1.0" encoding="UTF-8"?>
<svg width="296px" height="660px" viewBox="0 0 296 660" version="1.1" xmlns="http://www.w3.org/2000/svg" xmlns:xlink="http://www.w3.org/1999/xlink">
    <!-- Generator: Sketch 51.3 (57544) - http://www.bohemiancoding.com/sketch -->
    <title>Group 3</title>
    <desc>Created with Sketch.</desc>
    <defs>
        <polygon id="path-1" points="0 0 357 0 357 660 0 660"></polygon>
    </defs>
    <g id="Page-1" stroke="none" stroke-width="1" fill="none" fill-rule="evenodd" opacity="0.03">
        <g id="main-descktop" transform="translate(-804.000000, -2540.000000)">
            <g id="Group-3" transform="translate(804.000000, 2540.000000)">
                <mask id="mask-2" fill="white">
                    <use xlink:href="#path-1"></use>
                </mask>
                <g id="Clip-2"></g>
                <path d="M351.205333,824.421167 C351.24739,824.465129 351.297457,824.527076 351.35153,824.585026 C351.289446,824.515086 351.239379,824.459135 351.205333,824.421167 M66.3216286,338.666981 C64.7274815,340.7372 63.4838064,342.357806 62.0999425,344.158258 C61.9857888,343.926457 61.7094165,343.444871 61.5151549,342.933311 C61.4230308,342.693517 61.4590794,342.395774 61.4871171,342.128004 C61.9837861,337.194248 61.5031387,332.630173 56.5985328,329.868549 C56.5985328,327.182859 56.4523359,324.744956 56.6285732,322.331032 C56.8849185,318.850026 56.2420526,315.620804 54.2533741,312.76526 C53.181931,311.222587 53.4142439,310.033609 54.0310747,308.313089 C55.048445,305.485521 56.6806434,302.771855 56.570495,299.594588 C56.5584788,299.192934 56.4823763,298.675379 56.6886542,298.397618 C58.8215269,295.516096 58.2026934,292.19895 58.1546287,289.015688 C58.1245882,286.951463 58.8475619,285.398799 60.740111,284.027978 C59.9730779,287.19925 62.3242446,289.199529 63.5539008,291.379654 C65.6266926,295.048499 66.4998687,298.699358 66.3777042,302.863776 C66.1714263,309.899725 65.9331053,316.97364 66.41175,323.98361 C66.7642248,329.113198 65.9270972,334.136877 66.3216286,338.666981 M353.131928,807.62961 C348.401557,807.587646 343.663175,807.487732 338.934806,807.609627 C332.890665,807.761497 327.150935,806.474604 321.513341,804.464333 C319.606774,803.784917 317.664157,803.183434 315.705519,802.661883 C309.459106,800.997315 303.018431,799.830319 297.687251,795.424109 C297.827439,793.551719 297.326765,791.829201 295.65251,790.526321 C292.640453,788.180339 291.224546,785.067017 290.405443,781.284271 C288.57698,772.853522 286.16373,764.550664 284.074916,756.175867 C283.293864,753.036568 282.278497,749.861299 282.170351,746.676038 C281.777822,735.032054 282.264478,723.378078 281.377283,711.716109 C280.698369,702.821759 281.503453,693.905428 282.789185,685.027065 C283.750479,678.360799 284.070911,671.594618 284.46344,664.856414 C284.791882,659.189289 284.283197,653.498184 285.298564,647.839051 C286.153716,643.067156 286.496178,638.207336 287.30727,633.427447 C288.136387,628.513674 289.267911,623.649857 290.249232,618.762062 C291.174479,614.140037 291.378754,609.222267 293.163157,604.959933 C295.40017,599.616529 295.310049,594.113263 295.840764,588.673941 C296.493643,582.02566 294.721256,575.551229 292.908815,569.170717 C292.502267,567.745942 292.173825,566.299187 291.867412,564.850433 C290.60371,558.915538 289.516245,552.96066 287.074957,547.311519 C285.809252,544.382038 285.298564,541.122842 284.527526,537.993533 C283.215759,532.63814 282.673028,527.108896 280.011443,522.075225 C278.591531,519.391534 277.672293,516.448065 278.649609,513.124924 C279.200351,511.260527 278.948011,509.044433 278.609555,507.064137 C277.776433,502.15436 276.590836,497.30653 275.73969,492.400749 C275.423264,490.554337 275.263048,488.516091 275.705644,486.733624 C277.271753,480.387083 276.028078,474.689983 272.813749,470.02 C270.887154,459.303218 269.078718,449.265851 267.168145,438.644986 C268.249602,436.716645 269.687538,434.260757 271.017329,431.748918 C273.925246,426.261638 277.285772,420.962196 278.397269,414.693588 C278.845873,412.175753 279.202354,409.631941 279.837209,407.156071 C280.754444,403.601129 281.393305,400.046186 281.303183,396.355361 C281.27114,395.04249 281.481423,393.643693 281.936036,392.414751 C284.173049,386.359958 284.719785,380.297173 282.190378,374.218402 C280.720398,370.671453 281.106919,367.700009 284.10696,365.068272 C286.311929,363.131938 287.527567,360.616102 287.856009,357.61868 C288.276576,353.740016 288.925449,349.883333 289.470183,346.016659 C289.694485,344.418034 290.111046,342.809418 290.066987,341.212791 C289.966852,337.43604 289.474189,333.667281 289.440143,329.888531 C289.396083,324.467195 288.821309,319.117796 287.960149,313.778388 C287.771896,312.62538 288.062287,311.370459 288.256549,310.187477 C289.271916,304.064743 290.62574,298.007953 290.331343,291.709371 C290.189152,288.653999 289.748558,285.78047 288.354681,283.09478 C285.805247,278.151033 283.111619,273.28322 280.61025,268.317491 C279.580863,266.275247 278.547472,264.131092 278.118894,261.916996 C277.069481,256.495659 276.60085,250.956424 275.477336,245.55507 C273.803081,237.503995 272.032697,229.450921 269.8077,221.537728 C267.033964,211.652231 263.687457,201.928594 260.717457,192.095052 C257.755467,182.265507 254.527119,172.485919 252.212001,162.496511 C250.297422,154.223627 246.904853,146.630158 243.512283,138.982736 C242.87142,137.541975 241.785958,136.205125 240.624394,135.116062 C239.44881,134.009014 237.808601,132.995886 236.182411,133.749238 C234.111622,134.710411 232.475418,133.785207 230.735074,133.145757 C228.954676,132.492319 227.266402,131.579104 225.471985,130.969628 C217.250912,128.16604 208.823562,126.397561 200.193939,125.210582 C191.638415,124.031596 183.175016,122.103255 174.741658,120.188901 C172.604779,119.703319 170.542001,118.26056 168.813673,116.819799 C167.183478,115.462966 166.035932,113.530628 164.674098,111.85407 C164.045251,104.172677 164.674098,99.992273 169.979243,82.8130495 C170.359756,82.6511887 170.856425,82.4673468 171.339075,82.241541 C174.443256,80.7787992 174.895865,79.9055503 174.589452,76.3106424 C174.533377,75.6711924 174.729641,75.0057648 174.823768,74.3563234 C175.12217,72.2201608 175.775049,70.0680119 175.670909,67.9558287 C175.346472,61.76915 174.843795,55.5884663 174.184908,49.4297636 C173.626155,44.210253 172.801044,39.0167202 172.009978,33.8251856 C171.086735,27.7444159 168.721549,22.167213 165.903754,16.7438778 C164.369688,13.7924164 162.278872,11.3045563 159.585244,9.47013419 C156.356895,7.27602142 152.978345,5.26575052 149.511676,3.471294 C145.462222,1.37509701 141.422781,-1.22067029 136.464102,0.635732958 C130.079503,-0.535259831 124.690244,2.55008636 119.607398,5.40163365 C114.436434,8.30513624 109.311531,11.4923948 105.099858,15.9805344 C101.925583,19.3616262 99.476284,22.8246475 98.8374235,27.4586616 C98.3567762,30.921683 98.0443554,34.4386579 97.1892036,37.8137549 C95.9054745,42.8993806 96.0116175,47.8890887 97.3213816,52.9087711 C96.3300464,53.1105975 95.4728919,53.2864463 94.3033166,53.5222435 C94.2011791,54.9769922 93.976877,56.3038509 94.0469714,57.6147234 C94.241233,61.3914749 94.8520557,65.1702247 94.7579289,68.9329882 C94.6237482,74.4562374 97.2913411,78.6806039 100.105131,83.0468484 C101.380849,82.8929807 102.396217,82.7710856 103.455644,82.6451938 C105.832846,91.2717738 107.020445,99.9103435 106.053142,108.560903 C104.312798,110.463267 102.470317,112.079876 101.140526,114.042188 C99.9409098,115.808669 99.171874,117.904866 98.4489002,119.939116 C96.8507477,124.429254 93.9027772,127.498614 89.4788186,129.285077 C85.4533968,130.911678 81.5040776,132.724119 77.510699,134.428653 C69.27761,137.941632 61.11061,141.624464 52.7793888,144.88366 C44.770602,148.02296 37.2604867,151.955578 30.1909649,157.109145 C29.8144578,157.127129 29.2757322,157.175088 28.7330012,157.187078 C24.4992989,157.296983 22.1681592,159.427151 20.9525218,163.517633 C19.1601077,169.536456 18.8276599,175.729129 18.1046861,181.87784 C17.9504784,183.174725 18.4972148,184.543548 18.5072283,185.880398 C18.529258,187.866689 18.7315304,189.960888 18.1908021,191.813295 C17.2795748,194.914627 15.7054547,197.816131 14.6540385,200.885491 C12.7074167,206.56061 11.2935123,212.309665 13.2581584,218.336481 C13.5665738,219.281668 13.5004848,220.416692 13.3643014,221.42982 C12.5111523,227.70842 11.5738899,233.981025 10.686695,240.259624 C10.3081852,242.931326 9.99576439,245.609023 9.61925728,248.280725 C8.37157681,257.091147 7.03978304,265.893576 5.88422664,274.715987 C5.15123939,280.337152 4.94095617,286.030255 4.00769918,291.613453 C2.94026147,297.99996 2.96629654,304.318525 4.47032228,310.543171 C5.09316117,313.122952 4.75270261,314.969364 3.0724395,316.85774 C0.917537102,319.285651 0.0243340635,322.123211 0.000301694716,325.440357 C-0.0197252792,328.387822 0.961596444,331.005571 1.66654593,333.743216 C2.93625608,338.704948 4.08380168,343.702649 5.41960085,348.648395 C6.49905474,352.648954 8.61991128,356.089995 11.5598711,359.033463 C13.9110378,361.389436 15.6593926,364.197022 16.2561965,367.446227 C17.2655559,372.973473 19.3183208,378.067091 21.7215576,383.104758 C22.9852597,385.754479 24.0226569,388.632004 24.4972962,391.513526 C25.2082538,395.817823 26.828436,399.380759 29.8304794,402.629964 C33.3572295,406.448679 36.7337773,410.557146 36.2311003,416.384134 C36.1710193,417.105513 36.7818421,417.894834 37.1142898,418.6322 C37.5068185,419.497456 38.2878705,420.348724 38.2798597,421.199991 C38.2638381,423.809747 39.7418288,425.220533 41.5322403,426.883103 C47.9889367,432.879945 54.1792743,439.154548 60.5158089,445.27928 C61.3429229,446.074596 62.4404011,446.592151 63.6300033,447.38347 C64.5392279,445.045481 65.3042584,443.083169 66.1093427,441.022941 C67.0526132,441.486542 67.75556,441.834243 68.5125796,442.207922 C69.2736046,441.650401 70.0226134,441.106869 71.1120808,440.311553 C71.1841779,451.525907 71.4545421,462.366583 70.6774955,473.744796 C72.7022225,472.557817 74.2282779,471.662587 75.7743603,470.755367 C76.0907865,472.765638 76.4472667,474.488156 76.6215013,476.226661 C77.2783861,482.803005 77.9973544,489.379348 78.4579748,495.971678 C78.9326141,502.719873 78.8424927,509.514029 79.5274153,516.234249 C80.1843,522.652728 81.594199,528.993275 82.5434775,535.385776 C83.8752713,544.348068 85.6356423,553.234424 88.589621,561.785069 C90.7104775,567.909801 91.349338,574.126454 91.5796482,580.488982 C91.8179692,587.113284 91.9401337,593.753572 92.4968836,600.355893 C92.9955552,606.256818 94.2772816,612.093797 94.7499182,617.998718 C95.3086707,625.00669 95.3327031,632.054628 95.671159,639.084581 C95.8794395,643.400869 96.153809,647.719155 96.5503431,652.023452 C96.9709096,656.581532 97.9382124,661.113634 98.0083068,665.671713 C98.1224606,673.1273 98.4489002,680.534929 99.6885699,687.898595 C100.117147,690.420426 100.34946,692.984221 100.533708,695.538024 C100.886183,700.393847 101.10648,705.255665 101.442933,710.111489 C101.697275,713.748361 102.007694,717.385232 102.370182,721.014111 C102.810775,725.436307 103.377539,729.846514 103.80211,734.270709 C104.174612,738.169355 104.408928,742.077993 104.747384,745.978638 C104.997721,748.800211 105.308139,751.61579 105.614552,754.433366 C106.091193,758.853564 106.766103,763.263771 107.012434,767.697957 C107.158631,770.301717 107.380931,772.815555 108.406312,775.219487 C111.536528,782.563171 114.818949,789.846906 117.750898,797.27052 C119.06667,800.60765 120.590723,803.357285 124.369813,804.178579 C124.564074,804.222541 124.688242,804.590224 125.108808,805.173723 C125.507345,805.729245 119.327021,814.134016 118.818335,814.913345 C117.486542,816.947595 116.110689,818.967858 114.816946,821.020093 C113.124667,823.705783 112.90437,826.431438 112.315577,829.488808 C111.887,831.710897 111.556555,833.96296 111.524512,836.229011 C111.470439,840.233566 112.409704,844.176175 114.913076,847.371427 C124.411869,859.514982 146.910172,858.577788 155.589862,846.21642 C163.506525,834.940119 163.256188,819.173681 162.873673,805.97903 C162.989829,806.120908 163.170072,806.268781 163.298245,806.378686 C162.965797,803.690998 164.283572,801.674732 165.609357,799.478621 C166.885076,797.362441 167.702176,794.946519 169.114078,792.926257 C171.759641,789.145509 172.915197,784.88917 173.435899,780.417017 C173.826425,777.067897 173.650187,773.602878 174.431239,770.359667 C175.785063,764.76448 175.076108,759.273203 174.034705,753.859859 C172.616796,746.454229 170.794341,739.116541 168.873754,731.818818 C165.905757,720.55051 161.766181,709.671867 157.374266,698.887143 C156.7314,697.308501 156.473052,695.526034 156.314839,693.813507 C155.836194,688.719888 157.143955,683.682222 156.435001,678.496682 C155.651946,672.76761 156.398952,666.916642 155.637927,661.083659 C155.043126,656.535571 154.678635,651.955511 153.505054,647.52732 C152.946302,645.403147 153.162593,643.644659 153.977691,641.656369 C154.93498,639.304392 155.940334,636.764577 155.984394,634.288707 C156.098547,628.072054 155.659957,621.847408 155.503746,615.62476 C155.471703,614.417798 155.517765,613.152886 155.850213,612.003875 C157.660651,605.689306 157.111912,599.134944 157.850908,592.708471 C158.513801,586.947426 158.489768,581.108449 158.772148,575.30544 C158.786167,575.035672 158.826221,574.761908 158.854259,574.494138 C159.358939,569.396523 160.033848,564.3069 160.330247,559.197295 C160.76283,551.769684 160.907024,544.324088 161.215439,536.884487 C161.251488,535.957285 161.503828,535.024087 161.734138,534.114869 C163.170072,528.473722 163.955129,522.718672 164.36368,516.945637 C164.830308,510.343316 164.968494,503.735 167.40778,497.446409 C167.69016,496.717037 167.509917,495.811815 167.762257,495.058463 C168.55132,492.700491 167.916465,489.988824 169.536647,487.532936 C171.124786,491.615425 172.712925,495.346216 174.040713,499.162933 C178.172278,511.040716 182.129608,522.970455 186.291213,534.832252 C192.287289,551.921553 197.466265,569.24865 201.82814,586.819536 C204.299468,596.756989 206.636616,606.728412 208.979772,616.695839 C209.224101,617.724954 209.368295,618.941907 209.055875,619.911073 C207.435692,624.986708 208.663346,629.856519 210.087264,634.642402 C213.281566,645.383164 216.696165,656.053986 219.932524,666.780759 C220.395147,668.299453 220.847757,670.067932 220.50129,671.532672 C219.702214,674.927752 220.07071,678.150979 220.497285,681.548057 C221.174197,686.897456 221.160178,692.332781 221.440555,697.736133 C221.478607,698.409554 221.508647,699.08897 221.576739,699.76239 C222.0674,704.590238 222.872484,709.41209 222.990643,714.249929 C223.126827,719.943032 223.755674,725.536221 224.504682,731.167378 C225.01537,735.022062 225.229659,739.196472 224.288391,742.897289 C222.790373,748.784225 221.148162,754.577242 220.333064,760.642026 C219.580049,766.22922 217.833697,771.674536 216.780279,777.231756 C215.953164,781.594004 215.130056,786.018199 214.985862,790.438397 C214.709489,798.985046 214.905754,807.549679 214.925781,816.106319 C214.929786,817.30329 215.057959,818.504257 215.114034,819.435456 C217.210858,821.717493 219.656152,822.574755 222.215599,822.938443 C230.943354,824.169384 239.721177,824.876775 248.549067,824.714915 C249.205952,824.706921 250.089142,824.688937 250.471657,824.293277 C252.238036,822.482834 254.629257,822.770587 256.597908,822.872499 C264.947154,823.30213 273.302407,824.055482 281.481423,825.843943 C289.279927,827.548477 297.034371,829.436853 305.009112,830.070308 C308.35562,830.340076 311.728162,830.418009 315.086686,830.358061 C318.192869,830.302109 321.287037,829.886466 324.391218,829.764571 C325.586828,829.716612 326.812479,830.250153 328.002081,830.170222 C334.60898,829.722607 341.101725,828.551614 347.456284,826.711197 C348.792083,826.325529 349.983688,825.442289 351.437646,824.68494 C358.481133,820.014957 358.006493,813.312722 354.579878,807.985304 C354.167323,807.881394 353.652629,807.633607 353.131928,807.62961" id="Fill-1" fill="#0E1C2C" mask="url(#mask-2)"></path>
            </g>
        </g>
    </g>
</svg>