<?xml version="1.0" encoding="UTF-8"?>
<svg width="227px" height="278px" viewBox="0 0 227 278" version="1.1" xmlns="http://www.w3.org/2000/svg" xmlns:xlink="http://www.w3.org/1999/xlink">
    <!-- Generator: Sketch 51.3 (57544) - http://www.bohemiancoding.com/sketch -->
    <title>E</title>
    <desc>Created with Sketch.</desc>
    <defs></defs>
    <g id="Page-1" stroke="none" stroke-width="1" fill="none" fill-rule="evenodd">
        <path d="M1.3046875,265.70891 L36.8092747,260.151863 L36.8092747,16.8766953 L1.3046875,11.5254649 L1.3046875,0.6171875 L208.965238,0.6171875 L208.965238,66.6843016 L195.341385,66.6843016 L188.73588,22.0221092 C173.322959,20.1011451 151.029604,19.1406774 121.855146,19.1406774 L76.6487242,19.1406774 L76.6487242,126.988552 L151.373495,126.988552 L157.772577,94.0579034 L170.983587,94.0579034 L170.983587,178.854324 L157.772577,178.854324 L151.373495,145.512042 L76.6487242,145.512042 L76.6487242,258.093698 L131.144137,258.093698 C166.648902,258.093698 189.90555,256.99602 200.914779,254.800633 L212.680834,203.758127 L226.304688,203.758127 L222.382669,276.617188 L1.3046875,276.617188 L1.3046875,265.70891 Z" id="E" stroke="#BB9B6A"></path>
    </g>
</svg>