<?xml version="1.0" encoding="UTF-8"?>
<svg width="277px" height="278px" viewBox="0 0 277 278" version="1.1" xmlns="http://www.w3.org/2000/svg" xmlns:xlink="http://www.w3.org/1999/xlink">
    <!-- Generator: Sketch 51.3 (57544) - http://www.bohemiancoding.com/sketch -->
    <title>D</title>
    <desc>Created with Sketch.</desc>
    <defs></defs>
    <g id="Page-1" stroke="none" stroke-width="1" fill="none" fill-rule="evenodd">
        <path d="M233.480527,136.640149 C233.480527,98.1983208 223.101333,69.0595787 202.342635,49.2230483 C181.583936,29.3865179 151.953564,19.4684015 113.450632,19.4684015 L76.4551158,19.4684015 L76.4551158,256.889963 C92.8976495,257.984392 112.422865,258.531599 135.031349,258.531599 C168.738543,258.531599 193.573247,248.613482 209.536207,228.776952 C225.499167,208.940421 233.480527,178.228461 233.480527,136.640149 Z M126.604593,1 C177.439426,1 215.119667,12.3203329 239.646446,34.9613383 C264.173226,57.6023437 276.436431,91.6317432 276.436431,137.050558 C276.436431,183.016587 264.618537,217.832595 240.982395,241.499628 C217.346253,265.166661 182.029591,277 135.031349,277 L36.7877018,276.179182 L1.43643123,276.179182 L1.43643123,265.303346 L36.7877018,259.762825 L36.7877018,17.2111524 L1.43643123,11.8758364 L1.43643123,1 L126.604593,1 Z" id="D" stroke="#BB9B6A"></path>
    </g>
</svg>